<?xml version="1.0" encoding="UTF-8" standalone="no"?>
<!-- Created with Inkscape (http://www.inkscape.org/) -->

<svg
   xmlns:dc="http://purl.org/dc/elements/1.1/"
   xmlns:cc="http://creativecommons.org/ns#"
   xmlns:rdf="http://www.w3.org/1999/02/22-rdf-syntax-ns#"
   xmlns:svg="http://www.w3.org/2000/svg"
   xmlns="http://www.w3.org/2000/svg"
   xmlns:sodipodi="http://sodipodi.sourceforge.net/DTD/sodipodi-0.dtd"
   xmlns:inkscape="http://www.inkscape.org/namespaces/inkscape"
   width="128mm"
   height="128mm"
   viewBox="0 0 128 128"
   version="1.1"
   id="svg8"
   inkscape:version="0.92.2 5c3e80d, 2017-08-06"
   sodipodi:docname="logo.svg"
   inkscape:export-filename="/Users/afraser/Documents/qq/src/assets/logo.png"
   inkscape:export-xdpi="25.4"
   inkscape:export-ydpi="25.4">
  <defs
     id="defs2" />
  <sodipodi:namedview
     id="base"
     pagecolor="#424242"
     bordercolor="#666666"
     borderopacity="1.0"
     inkscape:pageopacity="0"
     inkscape:pageshadow="2"
     inkscape:zoom="0.5"
     inkscape:cx="297.10095"
     inkscape:cy="222.39261"
     inkscape:document-units="mm"
     inkscape:current-layer="layer2"
     showgrid="false"
     inkscape:snap-bbox="true"
     inkscape:bbox-paths="true"
     inkscape:measure-start="0,0"
     inkscape:measure-end="0,0"
     inkscape:window-width="1440"
     inkscape:window-height="851"
     inkscape:window-x="0"
     inkscape:window-y="1"
     inkscape:window-maximized="1">
    <inkscape:grid
       type="xygrid"
       id="grid4510" />
  </sodipodi:namedview>
  <metadata
     id="metadata5">
    <rdf:RDF>
      <cc:Work
         rdf:about="">
        <dc:format>image/svg+xml</dc:format>
        <dc:type
           rdf:resource="http://purl.org/dc/dcmitype/StillImage" />
        <dc:title></dc:title>
      </cc:Work>
    </rdf:RDF>
  </metadata>
  <g
     inkscape:label="Layer 1"
     inkscape:groupmode="layer"
     id="layer1"
     transform="translate(0,-169)"
     style="display:none">
    <g
       id="g4519"
       transform="translate(-0.9346005,-1.7188533)">
      <path
         style="color:#000000;font-style:normal;font-variant:normal;font-weight:normal;font-stretch:normal;font-size:medium;line-height:normal;font-family:sans-serif;font-variant-ligatures:normal;font-variant-position:normal;font-variant-caps:normal;font-variant-numeric:normal;font-variant-alternates:normal;font-feature-settings:normal;text-indent:0;text-align:start;text-decoration:none;text-decoration-line:none;text-decoration-style:solid;text-decoration-color:#000000;letter-spacing:normal;word-spacing:normal;text-transform:none;writing-mode:lr-tb;direction:ltr;text-orientation:mixed;dominant-baseline:auto;baseline-shift:baseline;text-anchor:start;white-space:normal;shape-padding:0;clip-rule:nonzero;display:inline;overflow:visible;visibility:visible;opacity:1;isolation:auto;mix-blend-mode:normal;color-interpolation:sRGB;color-interpolation-filters:linearRGB;solid-color:#000000;solid-opacity:1;vector-effect:none;fill:#cecece;fill-opacity:1;fill-rule:nonzero;stroke:none;stroke-width:45.64455414;stroke-linecap:butt;stroke-linejoin:miter;stroke-miterlimit:4;stroke-dasharray:none;stroke-dashoffset:0;stroke-opacity:1;color-rendering:auto;image-rendering:auto;shape-rendering:auto;text-rendering:auto;enable-background:accumulate"
         d="m 241.89258,50.433594 c -101.2651,0 -183.853517,82.586456 -183.853518,183.851566 0,36.02065 10.457596,69.67308 28.480469,98.08984 6.3807,-4.95225 13.001904,-10.51363 20.314449,-16.60742 4.75702,-3.96418 9.84309,-8.15415 15.2168,-12.38867 -11.68504,-20.29944 -18.36133,-43.88364 -18.36133,-69.09375 0,-76.59693 61.60618,-138.203129 138.20313,-138.203129 76.59694,0 138.19726,61.606199 138.19726,138.203129 0,23.87338 -5.98619,46.28923 -16.54296,65.83789 7.01381,4.97033 13.59834,9.95726 19.7832,14.71484 5.94668,4.57436 11.52001,8.84642 16.82617,12.80664 16.23821,-27.39223 25.58398,-59.31627 25.58398,-93.35937 0,-101.26511 -82.58256,-183.851566 -183.84765,-183.851566 z m 67.42383,304.626956 c -19.91942,11.0989 -42.90047,17.42187 -67.42383,17.42187 -23.40272,0 -45.3993,-5.76028 -64.67383,-15.93164 -6.80078,5.21045 -13.84512,11.12939 -21.67969,17.6582 -4.91863,4.09886 -10.18243,8.4385 -15.76172,12.82032 29.24178,19.62895 64.37894,31.10351 102.11524,31.10351 39.63364,0 76.40378,-12.65206 106.48242,-34.12109 -3.89828,-3.03075 -7.71585,-6.02512 -11.42578,-8.87891 -9.63224,-7.40942 -18.67074,-14.19111 -27.63281,-20.07226 z"
         id="path3701"
         inkscape:connector-curvature="0"
         transform="matrix(0.26458333,0,0,0.26458333,0.9346005,170.71885)" />
      <path
         style="color:#000000;font-style:normal;font-variant:normal;font-weight:normal;font-stretch:normal;font-size:medium;line-height:normal;font-family:sans-serif;font-variant-ligatures:normal;font-variant-position:normal;font-variant-caps:normal;font-variant-numeric:normal;font-variant-alternates:normal;font-feature-settings:normal;text-indent:0;text-align:start;text-decoration:none;text-decoration-line:none;text-decoration-style:solid;text-decoration-color:#000000;letter-spacing:normal;word-spacing:normal;text-transform:none;writing-mode:lr-tb;direction:ltr;text-orientation:mixed;dominant-baseline:auto;baseline-shift:baseline;text-anchor:start;white-space:normal;shape-padding:0;clip-rule:nonzero;display:inline;overflow:visible;visibility:visible;opacity:1;isolation:auto;mix-blend-mode:normal;color-interpolation:sRGB;color-interpolation-filters:linearRGB;solid-color:#000000;solid-opacity:1;vector-effect:none;fill:#ff982d;fill-opacity:1;fill-rule:nonzero;stroke:none;stroke-width:12.07678795;stroke-linecap:butt;stroke-linejoin:miter;stroke-miterlimit:4;stroke-dasharray:none;stroke-dashoffset:0;stroke-opacity:1;color-rendering:auto;image-rendering:auto;shape-rendering:auto;text-rendering:auto;enable-background:accumulate"
         d="m 64.935547,242.64453 c -15.326619,0 -25.167959,8.05598 -33.15625,14.71289 -7.988291,6.65691 -14.124757,11.91406 -25.4257814,11.91406 v 12.07813 c 15.3266184,0 25.1679594,-8.05794 33.1562504,-14.71484 7.988291,-6.65691 14.124756,-11.91407 25.425781,-11.91407 11.301024,0 19.070101,5.49684 27.605469,12.0625 8.535364,6.56567 17.807554,14.56641 30.974604,14.56641 v -12.07813 c -8.13505,0 -14.83872,-5.31239 -23.611323,-12.06054 -8.772601,-6.74815 -19.642132,-14.56641 -34.96875,-14.56641 z"
         id="path4512"
         inkscape:connector-curvature="0" />
    </g>
  </g>
  <g
     inkscape:groupmode="layer"
     id="layer2"
     inkscape:label="Layer 2"
     style="display:inline">
    <g
       transform="translate(-0.93460049,-170.71885)"
       id="g4558">
      <path
         style="color:#000000;font-style:normal;font-variant:normal;font-weight:normal;font-stretch:normal;font-size:medium;line-height:normal;font-family:sans-serif;font-variant-ligatures:normal;font-variant-position:normal;font-variant-caps:normal;font-variant-numeric:normal;font-variant-alternates:normal;font-feature-settings:normal;text-indent:0;text-align:start;text-decoration:none;text-decoration-line:none;text-decoration-style:solid;text-decoration-color:#000000;letter-spacing:normal;word-spacing:normal;text-transform:none;writing-mode:lr-tb;direction:ltr;text-orientation:mixed;dominant-baseline:auto;baseline-shift:baseline;text-anchor:start;white-space:normal;shape-padding:0;clip-rule:nonzero;display:inline;overflow:visible;visibility:visible;opacity:1;isolation:auto;mix-blend-mode:normal;color-interpolation:sRGB;color-interpolation-filters:linearRGB;solid-color:#000000;solid-opacity:1;vector-effect:none;fill:#cecece;fill-opacity:1;fill-rule:nonzero;stroke:none;stroke-width:45.35433197;stroke-linecap:butt;stroke-linejoin:miter;stroke-miterlimit:4;stroke-dasharray:none;stroke-dashoffset:0;stroke-opacity:1;color-rendering:auto;image-rendering:auto;shape-rendering:auto;text-rendering:auto;enable-background:accumulate"
         d="m 241.89258,50.580078 c -101.18667,0 -183.705084,82.518392 -183.70508,183.705082 -10e-7,36.07378 10.493442,69.7709 28.576172,98.20507 6.357334,-4.93787 12.952583,-10.47741 20.226558,-16.53906 4.28311,-3.56925 9.17078,-8.21548 14.45508,-13.34375 -11.39978,-20.13002 -17.9043,-43.43438 -17.90429,-68.32226 -1e-5,-76.67539 61.67618,-138.349613 138.35156,-138.349613 76.67538,0 138.3457,61.674223 138.3457,138.349613 0,76.67539 -61.67032,138.3457 -138.3457,138.3457 -23.54805,0 -45.67642,-5.82604 -65.04297,-16.10742 -6.73863,5.17235 -13.71825,11.03865 -21.46484,17.49414 -4.9031,4.08591 -10.14926,8.40806 -15.70508,12.77344 29.25321,19.68515 64.42996,31.19336 102.21289,31.19336 101.18667,0 183.69922,-82.51254 183.69922,-183.69922 0,-101.18669 -82.51255,-183.705082 -183.69922,-183.705082 z"
         transform="matrix(0.26458333,0,0,0.26458333,0.93460049,170.71885)"
         id="circle4552"
         inkscape:connector-curvature="0" />
      <path
         style="color:#000000;font-style:normal;font-variant:normal;font-weight:normal;font-stretch:normal;font-size:medium;line-height:normal;font-family:sans-serif;font-variant-ligatures:normal;font-variant-position:normal;font-variant-caps:normal;font-variant-numeric:normal;font-variant-alternates:normal;font-feature-settings:normal;text-indent:0;text-align:start;text-decoration:none;text-decoration-line:none;text-decoration-style:solid;text-decoration-color:#000000;letter-spacing:normal;word-spacing:normal;text-transform:none;writing-mode:lr-tb;direction:ltr;text-orientation:mixed;dominant-baseline:auto;baseline-shift:baseline;text-anchor:start;white-space:normal;shape-padding:0;clip-rule:nonzero;display:inline;overflow:visible;visibility:visible;opacity:1;isolation:auto;mix-blend-mode:normal;color-interpolation:sRGB;color-interpolation-filters:linearRGB;solid-color:#000000;solid-opacity:1;vector-effect:none;fill:#ff982d;fill-opacity:1;fill-rule:nonzero;stroke:none;stroke-width:45.35433197;stroke-linecap:butt;stroke-linejoin:miter;stroke-miterlimit:4;stroke-dasharray:none;stroke-dashoffset:0;stroke-opacity:1;color-rendering:auto;image-rendering:auto;shape-rendering:auto;text-rendering:auto;enable-background:accumulate"
         d="m 241.89258,271.99219 c -57.87901,0 -95.0346,30.41229 -125.22656,55.57226 -30.19197,25.15998 -53.424648,45.06641 -96.185551,45.06641 v 45.35352 c 57.879006,0 95.026781,-30.41816 125.218751,-55.57813 30.19196,-25.15997 53.43245,-45.05859 96.19336,-45.05859 26.50226,0 47.87232,7.99186 67.97265,19.97461 13.09271,-8.60718 24.41121,-19.64878 33.33594,-32.50586 -27.38114,-17.83953 -60.07029,-32.82422 -101.30859,-32.82422 z m 161.91211,77.32812 c -8.9159,12.49177 -19.24424,23.91181 -30.73438,34.04102 25.32915,18.41659 53.83337,34.62305 90.22852,34.62305 v -45.35352 c -20.9595,0 -39.40539,-9.32636 -59.49414,-23.31055 z"
         transform="matrix(0.26458333,0,0,0.26458333,0.93460049,170.71885)"
         id="path4556"
         inkscape:connector-curvature="0" />
    </g>
  </g>
</svg>
